<?xml version="1.0" standalone="no"?>
<!DOCTYPE svg PUBLIC "-//W3C//DTD SVG 20010904//EN"
 "http://www.w3.org/TR/2001/REC-SVG-20010904/DTD/svg10.dtd">
<svg version="1.0" xmlns="http://www.w3.org/2000/svg"
 width="154.000000pt" height="154.000000pt" viewBox="0 0 154.000000 154.000000"
 preserveAspectRatio="xMidYMid meet">
<metadata>
Created by potrace 1.14, written by Peter Selinger 2001-2017
</metadata>
<g transform="translate(0.000000,154.000000) scale(0.100000,-0.100000)"
fill="#000000" stroke="none">
<path d="M849 1469 c-90 -38 -177 -76 -194 -83 -16 -7 -56 -24 -88 -37 -69
-28 -71 -32 -70 -181 l1 -108 -78 0 c-56 0 -81 -4 -90 -15 -16 -20 -15 -622 1
-642 16 -19 252 -19 268 0 7 9 11 91 12 235 1 123 5 224 8 226 9 6 249 39 291
40 l35 1 0 -242 c1 -188 4 -245 15 -257 11 -14 31 -16 133 -13 92 3 123 8 131
19 8 11 11 136 11 400 0 409 0 409 -48 424 -12 4 -46 15 -74 26 l-53 19 0 118
c0 162 5 160 -211 70z m11 -323 c0 -139 3 -185 13 -189 6 -2 33 -2 58 0 32 3
50 0 55 -9 5 -7 9 -123 9 -258 l0 -245 108 0 c67 0 106 -4 104 -10 -2 -6 -51
-10 -118 -10 l-114 0 -1 243 c0 175 -3 245 -12 254 -11 11 -65 14 -103 6 -12
-2 -14 30 -17 200 -1 132 1 202 8 202 6 0 10 -66 10 -184z m-315 67 c-2 -131
-1 -133 85 -133 41 0 72 -5 76 -11 4 -7 6 -38 5 -70 -1 -31 3 -60 8 -63 5 -4
28 -2 50 3 33 7 41 6 41 -5 0 -8 -3 -14 -7 -14 -5 0 -32 -3 -60 -6 l-53 -6 0
64 c0 36 -5 69 -12 76 -7 7 -41 12 -83 12 l-70 0 1 118 c2 136 2 132 12 132 5
0 8 -44 7 -97z m116 -205 c2 -23 1 -87 0 -100 -1 -5 -9 -8 -19 -8 -10 0 -27
-6 -37 -14 -18 -13 -19 -29 -20 -235 -1 -121 -4 -223 -7 -226 -5 -5 -89 -8
-189 -6 -20 1 -39 7 -42 14 -3 9 18 11 95 9 64 -3 104 0 111 7 7 7 11 86 12
231 0 233 2 239 47 240 24 0 33 19 30 68 -1 23 3 42 8 42 6 0 11 -10 11 -22z"/>
<path d="M775 868 c-27 -4 -67 -10 -89 -12 -21 -3 -41 -8 -45 -11 -8 -9 -10
-420 -2 -433 5 -8 103 -29 224 -48 21 -3 44 -1 50 5 9 7 12 73 11 253 -1 134
-2 247 -3 251 -1 9 -71 7 -146 -5z"/>
<path d="M1193 345 c-7 -20 0 -27 20 -19 9 3 13 12 10 20 -7 19 -22 18 -30 -1z"/>
<path d="M669 301 c0 -11 -1 -34 -1 -51 0 -60 2 -70 15 -70 19 0 19 116 1 131
-11 9 -14 7 -15 -10z"/>
<path d="M513 290 c3 -13 0 -20 -9 -20 -8 0 -14 -2 -14 -4 0 -2 -3 -12 -7 -21
-5 -15 -3 -16 17 -5 20 11 25 10 37 -6 7 -10 13 -21 13 -24 0 -5 -38 -6 -76
-1 -6 0 -16 13 -22 27 -7 14 -17 22 -23 19 -6 -4 -8 -9 -5 -12 3 -3 1 -14 -5
-24 -10 -20 -43 -14 -35 7 5 14 -17 37 -27 27 -4 -3 -7 -23 -7 -44 0 -20 -5
-39 -12 -41 -16 -6 -1 -28 19 -28 8 0 17 9 20 20 3 12 11 19 17 17 6 -2 21 0
33 4 12 5 24 5 27 1 7 -11 166 -5 181 8 19 16 15 115 -5 115 -10 0 -14 -13
-15 -47 -2 -56 -8 -66 -26 -43 -8 9 -24 28 -36 41 -12 13 -20 31 -17 39 4 10
0 15 -11 15 -12 0 -16 -6 -12 -20z"/>
<path d="M948 300 c-8 -25 5 -120 16 -120 9 0 13 20 14 65 0 48 -3 65 -13 65
-7 0 -15 -4 -17 -10z"/>
<path d="M1190 251 c0 -33 5 -63 11 -66 17 -11 21 1 21 52 -1 72 -1 73 -17 73
-12 0 -15 -13 -15 -59z"/>
<path d="M787 256 c-15 -16 -12 -62 5 -72 12 -7 119 -7 126 1 10 10 11 65 1
71 -15 9 -23 -3 -28 -47 -1 -5 -38 -5 -85 0 -5 1 -6 15 -2 31 6 34 4 36 -17
16z"/>
<path d="M1001 248 c-11 -31 7 -68 33 -69 20 0 20 -1 -1 -9 -13 -5 -23 -14
-23 -20 0 -18 46 -11 66 11 12 13 27 19 41 16 13 -2 28 2 33 9 15 18 22 64 10
64 -5 0 -13 0 -17 0 -5 0 -8 -8 -8 -17 0 -10 -8 -21 -19 -26 -22 -9 -25 -7
-31 22 -6 34 -14 41 -46 41 -22 0 -32 -6 -38 -22z m56 -14 c7 -20 -8 -36 -25
-25 -14 8 -6 41 9 41 5 0 12 -7 16 -16z"/>
<path d="M406 162 c-3 -2 -2 -10 1 -18 4 -11 9 -12 18 -4 9 8 15 8 20 0 7 -11
25 -4 25 9 0 9 -57 21 -64 13z"/>
<path d="M847 163 c-12 -11 -8 -23 8 -23 8 0 15 7 15 15 0 16 -12 20 -23 8z"/>
<path d="M1122 149 c2 -6 8 -10 13 -10 5 0 11 4 13 10 2 6 -4 11 -13 11 -9 0
-15 -5 -13 -11z"/>
<path d="M405 56 c-9 -21 -13 -41 -9 -45 4 -3 9 0 11 7 5 14 33 16 33 2 0 -5
5 -10 10 -10 14 0 2 51 -16 69 -12 13 -16 9 -29 -23z m22 -8 c-3 -8 -6 -5 -6
6 -1 11 2 17 5 13 3 -3 4 -12 1 -19z"/>
<path d="M472 53 c2 -30 8 -39 24 -41 14 -2 23 3 26 16 6 23 1 33 -30 50 -23
13 -23 12 -20 -25z m38 -14 c0 -5 -4 -9 -10 -9 -5 0 -10 7 -10 16 0 8 5 12 10
9 6 -3 10 -10 10 -16z"/>
<path d="M684 63 c2 -16 4 -34 5 -40 1 -15 37 -17 46 -3 10 16 -5 50 -21 50
-8 0 -14 5 -14 10 0 6 -4 10 -9 10 -6 0 -8 -12 -7 -27z m36 -23 c0 -5 -4 -10
-10 -10 -5 0 -10 5 -10 10 0 6 5 10 10 10 6 0 10 -4 10 -10z"/>
<path d="M785 70 c-10 -33 4 -60 31 -60 30 0 31 8 2 20 -21 8 -21 9 -3 10 20
1 20 1 1 15 -19 15 -19 15 3 15 12 0 19 4 16 10 -11 17 -43 11 -50 -10z"/>
<path d="M850 52 c0 -31 4 -42 13 -39 13 4 11 42 -4 67 -6 10 -8 1 -9 -28z"/>
<path d="M890 75 c-5 -49 5 -79 19 -56 6 9 11 10 15 2 4 -6 12 -11 18 -11 6 0
4 8 -5 18 -11 12 -13 22 -6 35 14 24 29 12 29 -24 0 -16 4 -29 9 -29 6 0 8 9
6 20 -2 11 0 20 6 20 5 0 9 -9 9 -20 0 -11 5 -20 10 -20 6 0 10 12 10 26 0 17
-6 28 -20 31 -11 3 -20 9 -20 13 0 9 -41 7 -58 -4 -5 -3 -13 0 -15 6 -3 8 -6
4 -7 -7z"/>
<path d="M1090 52 c0 -31 4 -42 16 -42 10 0 12 5 7 13 -4 6 -7 22 -8 34 0 12
-3 25 -7 29 -5 4 -8 -11 -8 -34z"/>
<path d="M535 48 c10 -31 26 -47 32 -30 4 9 8 10 18 2 10 -8 15 -6 20 9 3 10
13 22 22 25 13 6 14 4 3 -9 -10 -11 -10 -19 -2 -27 17 -17 44 -1 40 24 -2 18
-9 23 -33 23 -16 0 -33 -4 -37 -10 -5 -6 -11 -5 -17 4 -7 11 -11 10 -20 -5 -9
-17 -10 -17 -11 -1 0 9 -5 17 -11 17 -6 0 -8 -9 -4 -22z"/>
<path d="M1031 56 c-15 -18 -3 -46 20 -46 14 0 19 7 19 30 0 32 -19 40 -39 16z"/>
<path d="M1127 58 c-5 -17 3 -48 14 -48 4 0 6 9 4 20 -2 11 0 20 6 20 5 0 9 5
9 10 0 14 -28 12 -33 -2z"/>
</g>
</svg>
